<?xml version="1.0" encoding="iso-8859-1"?>
<!-- Uploaded to: SVG Repo, www.svgrepo.com, Generator: SVG Repo Mixer Tools -->
<!DOCTYPE svg PUBLIC "-//W3C//DTD SVG 1.1//EN" "http://www.w3.org/Graphics/SVG/1.1/DTD/svg11.dtd">
<svg fill="#000000" version="1.1" id="Capa_1" xmlns="http://www.w3.org/2000/svg" xmlns:xlink="http://www.w3.org/1999/xlink" 
	 width="800px" height="800px" viewBox="0 0 92.145 92.145"
	 xml:space="preserve">
<g>
	<g>
		<path d="M25.645,45.792c-0.044-0.38-0.068-0.765-0.068-1.153c0,0.388-0.029,0.773-0.074,1.153H25.645z"/>
		<path d="M87.706,45.792c0-22.52-17.888-40.851-40.224-41.597V1.413C47.482,0.631,46.848,0,46.068,0
			c-0.776,0-1.408,0.631-1.408,1.413v2.782C22.32,4.938,4.438,23.269,4.438,45.792h0.655c-0.042-0.38-0.07-0.765-0.07-1.153
			c0-5.678,4.601-10.278,10.278-10.278c5.674,0,10.278,4.601,10.278,10.278c0-5.678,4.601-10.278,10.273-10.278
			c3.744,0,7.012,2.01,8.811,5.008v46.429c0,1.943-1.581,3.524-3.528,3.524c-1.949,0-3.53-1.584-3.53-3.524
			c0-0.783-0.629-1.413-1.408-1.413c-0.778,0-1.408,0.63-1.408,1.413c0,3.504,2.849,6.348,6.35,6.348
			c3.505,0,6.354-2.847,6.354-6.348v-46.25c1.77-3.094,5.096-5.186,8.918-5.186c5.678,0,10.277,4.601,10.277,10.278
			c0-5.678,4.603-10.278,10.273-10.278c5.681,0,10.279,4.601,10.279,10.278c0,0.388-0.023,0.773-0.068,1.153H87.706z"/>
		<path d="M66.749,45.792c-0.041-0.38-0.068-0.765-0.068-1.153c0,0.388-0.031,0.773-0.072,1.153H66.749z"/>
	</g>
</g>
</svg>